<?xml version="1.0" encoding="UTF-8" standalone="no"?>
<!-- Created with Inkscape (http://www.inkscape.org/) -->

<svg
   xmlns:dc="http://purl.org/dc/elements/1.1/"
   xmlns:cc="http://creativecommons.org/ns#"
   xmlns:rdf="http://www.w3.org/1999/02/22-rdf-syntax-ns#"
   xmlns:svg="http://www.w3.org/2000/svg"
   xmlns="http://www.w3.org/2000/svg"
   xmlns:sodipodi="http://sodipodi.sourceforge.net/DTD/sodipodi-0.dtd"
   xmlns:inkscape="http://www.inkscape.org/namespaces/inkscape"
   id="svg2985"
   version="1.1"
   inkscape:version="0.48.2 r9819"
   width="523.75"
   height="393.75"
   xml:space="preserve"
   sodipodi:docname="workloadhist.eps"><metadata
     id="metadata2991"><rdf:RDF><cc:Work
         rdf:about=""><dc:format>image/svg+xml</dc:format><dc:type
           rdf:resource="http://purl.org/dc/dcmitype/StillImage" /><dc:title></dc:title></cc:Work></rdf:RDF></metadata><defs
     id="defs2989"><clipPath
       clipPathUnits="userSpaceOnUse"
       id="clipPath3187"><path
         d="m 545.832,2914.17 3254.998,0 0,-2568.338 -3254.998,0 0,2568.338 z"
         id="path3189" /></clipPath></defs><sodipodi:namedview
     pagecolor="#ffffff"
     bordercolor="#666666"
     borderopacity="1"
     objecttolerance="10"
     gridtolerance="10"
     guidetolerance="10"
     inkscape:pageopacity="0"
     inkscape:pageshadow="2"
     inkscape:window-width="1280"
     inkscape:window-height="962"
     id="namedview2987"
     showgrid="false"
     inkscape:zoom="1.8869841"
     inkscape:cx="81.037036"
     inkscape:cy="196.875"
     inkscape:window-x="-8"
     inkscape:window-y="-8"
     inkscape:window-maximized="1"
     inkscape:current-layer="g3185" /><g
     id="g2993"
     inkscape:groupmode="layer"
     inkscape:label="ink_ext_XXXXXX"
     transform="matrix(1.25,0,0,-1.25,0,393.75)"><g
       id="g2995"
       transform="scale(0.1,0.1)"><path
         d="m 0,0 4190,0 0,3150 L 0,3150 0,0 z"
         style="fill:#ffffff;fill-opacity:1;fill-rule:nonzero;stroke:none"
         id="path2997" /><path
         d="m 545.832,346.668 3254.17,0 0,2567.5 -3254.17,0 0,-2567.5 z"
         style="fill:#ffffff;fill-opacity:1;fill-rule:evenodd;stroke:none"
         id="path2999" /><path
         d="m 545.832,346.668 0,2567.502 3254.168,0 0,-2567.502 -3254.168,0"
         style="fill:none;stroke:#ffffff;stroke-opacity:1;stroke-width:5;stroke-linecap:butt;stroke-linejoin:round;stroke-miterlimit:10;stroke-dasharray:none"
         id="path3001" /><path
         d="m 545.832,2914.17 3254.168,0"
         style="fill:none;stroke:#000000;stroke-opacity:1;stroke-width:5;stroke-linecap:butt;stroke-linejoin:round;stroke-miterlimit:10;stroke-dasharray:none"
         id="path3003" /><path
         d="m 545.832,346.668 3254.168,0"
         style="fill:none;stroke:#000000;stroke-opacity:1;stroke-width:5;stroke-linecap:butt;stroke-linejoin:round;stroke-miterlimit:10;stroke-dasharray:none"
         id="path3005" /><path
         d="m 3800,346.668 0,2567.502"
         style="fill:none;stroke:#000000;stroke-opacity:1;stroke-width:5;stroke-linecap:butt;stroke-linejoin:round;stroke-miterlimit:10;stroke-dasharray:none"
         id="path3007" /><path
         d="m 545.832,346.668 0,2567.502"
         style="fill:none;stroke:#000000;stroke-opacity:1;stroke-width:5;stroke-linecap:butt;stroke-linejoin:round;stroke-miterlimit:10;stroke-dasharray:none"
         id="path3009" /><path
         d="m 545.832,346.668 3254.168,0"
         style="fill:none;stroke:#000000;stroke-opacity:1;stroke-width:5;stroke-linecap:butt;stroke-linejoin:round;stroke-miterlimit:10;stroke-dasharray:none"
         id="path3011" /><path
         d="m 545.832,346.668 0,2567.502"
         style="fill:none;stroke:#000000;stroke-opacity:1;stroke-width:5;stroke-linecap:butt;stroke-linejoin:round;stroke-miterlimit:10;stroke-dasharray:none"
         id="path3013" /><path
         d="m 545.832,346.668 0,33.332"
         style="fill:none;stroke:#000000;stroke-opacity:1;stroke-width:5;stroke-linecap:butt;stroke-linejoin:round;stroke-miterlimit:10;stroke-dasharray:none"
         id="path3015" /><path
         d="m 545.832,2914.17 0,-32.5"
         style="fill:none;stroke:#000000;stroke-opacity:1;stroke-width:5;stroke-linecap:butt;stroke-linejoin:round;stroke-miterlimit:10;stroke-dasharray:none"
         id="path3017" /><g
         id="g3019"
         transform="scale(10,10)"><text
           transform="matrix(1,0,0,-1,51.8332,22.5832)"
           id="text3021"><tspan
             style="fill:#000000;fill-opacity:1;fill-rule:nonzero;stroke:none;font-family:Helvetica;font-variant:normal;font-weight:normal;font-size:10;writing-mode:lr;-inkscape-font-specification:Helvetica"
             x="0"
             y="0"
             id="tspan3023">0</tspan></text>
</g><path
         d="m 906.668,346.668 0,33.332"
         style="fill:none;stroke:#000000;stroke-opacity:1;stroke-width:5;stroke-linecap:butt;stroke-linejoin:round;stroke-miterlimit:10;stroke-dasharray:none"
         id="path3025" /><path
         d="m 906.668,2914.17 0,-32.5"
         style="fill:none;stroke:#000000;stroke-opacity:1;stroke-width:5;stroke-linecap:butt;stroke-linejoin:round;stroke-miterlimit:10;stroke-dasharray:none"
         id="path3027" /><g
         id="g3029"
         transform="scale(10,10)"><text
           transform="matrix(1,0,0,-1,83.75,22.5832)"
           id="text3031"><tspan
             style="fill:#000000;fill-opacity:1;fill-rule:nonzero;stroke:none;font-family:Helvetica;font-variant:normal;font-weight:normal;font-size:10;writing-mode:lr;-inkscape-font-specification:Helvetica"
             x="0 5.56 8.34"
             y="0"
             sodipodi:role="line"
             id="tspan3033">0.1</tspan></text>
</g><path
         d="m 1268.33,346.668 0,33.332"
         style="fill:none;stroke:#000000;stroke-opacity:1;stroke-width:5;stroke-linecap:butt;stroke-linejoin:round;stroke-miterlimit:10;stroke-dasharray:none"
         id="path3035" /><path
         d="m 1268.33,2914.17 0,-32.5"
         style="fill:none;stroke:#000000;stroke-opacity:1;stroke-width:5;stroke-linecap:butt;stroke-linejoin:round;stroke-miterlimit:10;stroke-dasharray:none"
         id="path3037" /><g
         id="g3039"
         transform="scale(10,10)"><text
           transform="matrix(1,0,0,-1,119.917,22.5832)"
           id="text3041"><tspan
             style="fill:#000000;fill-opacity:1;fill-rule:nonzero;stroke:none;font-family:Helvetica;font-variant:normal;font-weight:normal;font-size:10;writing-mode:lr;-inkscape-font-specification:Helvetica"
             x="0 5.56 8.34"
             y="0"
             sodipodi:role="line"
             id="tspan3043">0.2</tspan></text>
</g><path
         d="M 1630,346.668 1630,380"
         style="fill:none;stroke:#000000;stroke-opacity:1;stroke-width:5;stroke-linecap:butt;stroke-linejoin:round;stroke-miterlimit:10;stroke-dasharray:none"
         id="path3045" /><path
         d="m 1630,2914.17 0,-32.5"
         style="fill:none;stroke:#000000;stroke-opacity:1;stroke-width:5;stroke-linecap:butt;stroke-linejoin:round;stroke-miterlimit:10;stroke-dasharray:none"
         id="path3047" /><g
         id="g3049"
         transform="scale(10,10)"><text
           transform="matrix(1,0,0,-1,156.083,22.5832)"
           id="text3051"><tspan
             style="fill:#000000;fill-opacity:1;fill-rule:nonzero;stroke:none;font-family:Helvetica;font-variant:normal;font-weight:normal;font-size:10;writing-mode:lr;-inkscape-font-specification:Helvetica"
             x="0 5.56 8.34"
             y="0"
             sodipodi:role="line"
             id="tspan3053">0.3</tspan></text>
</g><path
         d="m 1991.67,346.668 0,33.332"
         style="fill:none;stroke:#000000;stroke-opacity:1;stroke-width:5;stroke-linecap:butt;stroke-linejoin:round;stroke-miterlimit:10;stroke-dasharray:none"
         id="path3055" /><path
         d="m 1991.67,2914.17 0,-32.5"
         style="fill:none;stroke:#000000;stroke-opacity:1;stroke-width:5;stroke-linecap:butt;stroke-linejoin:round;stroke-miterlimit:10;stroke-dasharray:none"
         id="path3057" /><g
         id="g3059"
         transform="scale(10,10)"><text
           transform="matrix(1,0,0,-1,192.25,22.5832)"
           id="text3061"><tspan
             style="fill:#000000;fill-opacity:1;fill-rule:nonzero;stroke:none;font-family:Helvetica;font-variant:normal;font-weight:normal;font-size:10;writing-mode:lr;-inkscape-font-specification:Helvetica"
             x="0 5.56 8.34"
             y="0"
             sodipodi:role="line"
             id="tspan3063">0.4</tspan></text>
</g><path
         d="m 2353.33,346.668 0,33.332"
         style="fill:none;stroke:#000000;stroke-opacity:1;stroke-width:5;stroke-linecap:butt;stroke-linejoin:round;stroke-miterlimit:10;stroke-dasharray:none"
         id="path3065" /><path
         d="m 2353.33,2914.17 0,-32.5"
         style="fill:none;stroke:#000000;stroke-opacity:1;stroke-width:5;stroke-linecap:butt;stroke-linejoin:round;stroke-miterlimit:10;stroke-dasharray:none"
         id="path3067" /><g
         id="g3069"
         transform="scale(10,10)"><text
           transform="matrix(1,0,0,-1,228.417,22.5832)"
           id="text3071"><tspan
             style="fill:#000000;fill-opacity:1;fill-rule:nonzero;stroke:none;font-family:Helvetica;font-variant:normal;font-weight:normal;font-size:10;writing-mode:lr;-inkscape-font-specification:Helvetica"
             x="0 5.56 8.34"
             y="0"
             sodipodi:role="line"
             id="tspan3073">0.5</tspan></text>
</g><path
         d="M 2715,346.668 2715,380"
         style="fill:none;stroke:#000000;stroke-opacity:1;stroke-width:5;stroke-linecap:butt;stroke-linejoin:round;stroke-miterlimit:10;stroke-dasharray:none"
         id="path3075" /><path
         d="m 2715,2914.17 0,-32.5"
         style="fill:none;stroke:#000000;stroke-opacity:1;stroke-width:5;stroke-linecap:butt;stroke-linejoin:round;stroke-miterlimit:10;stroke-dasharray:none"
         id="path3077" /><g
         id="g3079"
         transform="scale(10,10)"><text
           transform="matrix(1,0,0,-1,264.583,22.5832)"
           id="text3081"><tspan
             style="fill:#000000;fill-opacity:1;fill-rule:nonzero;stroke:none;font-family:Helvetica;font-variant:normal;font-weight:normal;font-size:10;writing-mode:lr;-inkscape-font-specification:Helvetica"
             x="0 5.56 8.34"
             y="0"
             sodipodi:role="line"
             id="tspan3083">0.6</tspan></text>
</g><path
         d="m 3076.67,346.668 0,33.332"
         style="fill:none;stroke:#000000;stroke-opacity:1;stroke-width:5;stroke-linecap:butt;stroke-linejoin:round;stroke-miterlimit:10;stroke-dasharray:none"
         id="path3085" /><path
         d="m 3076.67,2914.17 0,-32.5"
         style="fill:none;stroke:#000000;stroke-opacity:1;stroke-width:5;stroke-linecap:butt;stroke-linejoin:round;stroke-miterlimit:10;stroke-dasharray:none"
         id="path3087" /><g
         id="g3089"
         transform="scale(10,10)"><text
           transform="matrix(1,0,0,-1,300.75,22.5832)"
           id="text3091"><tspan
             style="fill:#000000;fill-opacity:1;fill-rule:nonzero;stroke:none;font-family:Helvetica;font-variant:normal;font-weight:normal;font-size:10;writing-mode:lr;-inkscape-font-specification:Helvetica"
             x="0 5.56 8.34"
             y="0"
             sodipodi:role="line"
             id="tspan3093">0.7</tspan></text>
</g><path
         d="m 3438.33,346.668 0,33.332"
         style="fill:none;stroke:#000000;stroke-opacity:1;stroke-width:5;stroke-linecap:butt;stroke-linejoin:round;stroke-miterlimit:10;stroke-dasharray:none"
         id="path3095" /><path
         d="m 3438.33,2914.17 0,-32.5"
         style="fill:none;stroke:#000000;stroke-opacity:1;stroke-width:5;stroke-linecap:butt;stroke-linejoin:round;stroke-miterlimit:10;stroke-dasharray:none"
         id="path3097" /><g
         id="g3099"
         transform="scale(10,10)"><text
           transform="matrix(1,0,0,-1,336.917,22.5832)"
           id="text3101"><tspan
             style="fill:#000000;fill-opacity:1;fill-rule:nonzero;stroke:none;font-family:Helvetica;font-variant:normal;font-weight:normal;font-size:10;writing-mode:lr;-inkscape-font-specification:Helvetica"
             x="0 5.56 8.34"
             y="0"
             sodipodi:role="line"
             id="tspan3103">0.8</tspan></text>
</g><path
         d="M 3800,346.668 3800,380"
         style="fill:none;stroke:#000000;stroke-opacity:1;stroke-width:5;stroke-linecap:butt;stroke-linejoin:round;stroke-miterlimit:10;stroke-dasharray:none"
         id="path3105" /><path
         d="m 3800,2914.17 0,-32.5"
         style="fill:none;stroke:#000000;stroke-opacity:1;stroke-width:5;stroke-linecap:butt;stroke-linejoin:round;stroke-miterlimit:10;stroke-dasharray:none"
         id="path3107" /><g
         id="g3109"
         transform="scale(10,10)"><text
           transform="matrix(1,0,0,-1,373.083,22.5832)"
           id="text3111"><tspan
             style="fill:#000000;fill-opacity:1;fill-rule:nonzero;stroke:none;font-family:Helvetica;font-variant:normal;font-weight:normal;font-size:10;writing-mode:lr;-inkscape-font-specification:Helvetica"
             x="0 5.56 8.34"
             y="0"
             sodipodi:role="line"
             id="tspan3113">0.9</tspan></text>
</g><path
         d="m 545.832,346.668 32.5,0"
         style="fill:none;stroke:#000000;stroke-opacity:1;stroke-width:5;stroke-linecap:butt;stroke-linejoin:round;stroke-miterlimit:10;stroke-dasharray:none"
         id="path3115" /><path
         d="m 3800,346.668 -33.33,0"
         style="fill:none;stroke:#000000;stroke-opacity:1;stroke-width:5;stroke-linecap:butt;stroke-linejoin:round;stroke-miterlimit:10;stroke-dasharray:none"
         id="path3117" /><g
         id="g3119"
         transform="scale(10,10)"><text
           transform="matrix(1,0,0,-1,46.1668,31)"
           id="text3121"><tspan
             style="fill:#000000;fill-opacity:1;fill-rule:nonzero;stroke:none;font-family:Helvetica;font-variant:normal;font-weight:normal;font-size:10;writing-mode:lr;-inkscape-font-specification:Helvetica"
             x="0"
             y="0"
             id="tspan3123">0</tspan></text>
</g><path
         d="m 545.832,860.832 32.5,0"
         style="fill:none;stroke:#000000;stroke-opacity:1;stroke-width:5;stroke-linecap:butt;stroke-linejoin:round;stroke-miterlimit:10;stroke-dasharray:none"
         id="path3125" /><path
         d="m 3800,860.832 -33.33,0"
         style="fill:none;stroke:#000000;stroke-opacity:1;stroke-width:5;stroke-linecap:butt;stroke-linejoin:round;stroke-miterlimit:10;stroke-dasharray:none"
         id="path3127" /><g
         id="g3129"
         transform="scale(10,10)"><text
           transform="matrix(1,0,0,-1,46.1668,82.4168)"
           id="text3131"><tspan
             style="fill:#000000;fill-opacity:1;fill-rule:nonzero;stroke:none;font-family:Helvetica;font-variant:normal;font-weight:normal;font-size:10;writing-mode:lr;-inkscape-font-specification:Helvetica"
             x="0"
             y="0"
             id="tspan3133">5</tspan></text>
</g><path
         d="m 545.832,1374.17 32.5,0"
         style="fill:none;stroke:#000000;stroke-opacity:1;stroke-width:5;stroke-linecap:butt;stroke-linejoin:round;stroke-miterlimit:10;stroke-dasharray:none"
         id="path3135" /><path
         d="m 3800,1374.17 -33.33,0"
         style="fill:none;stroke:#000000;stroke-opacity:1;stroke-width:5;stroke-linecap:butt;stroke-linejoin:round;stroke-miterlimit:10;stroke-dasharray:none"
         id="path3137" /><g
         id="g3139"
         transform="scale(10,10)"><text
           transform="matrix(1,0,0,-1,40.5832,133.75)"
           id="text3141"><tspan
             style="fill:#000000;fill-opacity:1;fill-rule:nonzero;stroke:none;font-family:Helvetica;font-variant:normal;font-weight:normal;font-size:10;writing-mode:lr;-inkscape-font-specification:Helvetica"
             x="0 5.56"
             y="0"
             sodipodi:role="line"
             id="tspan3143">10</tspan></text>
</g><path
         d="m 545.832,1887.5 32.5,0"
         style="fill:none;stroke:#000000;stroke-opacity:1;stroke-width:5;stroke-linecap:butt;stroke-linejoin:round;stroke-miterlimit:10;stroke-dasharray:none"
         id="path3145" /><path
         d="m 3800,1887.5 -33.33,0"
         style="fill:none;stroke:#000000;stroke-opacity:1;stroke-width:5;stroke-linecap:butt;stroke-linejoin:round;stroke-miterlimit:10;stroke-dasharray:none"
         id="path3147" /><g
         id="g3149"
         transform="scale(10,10)"><text
           transform="matrix(1,0,0,-1,40.5832,185.083)"
           id="text3151"><tspan
             style="fill:#000000;fill-opacity:1;fill-rule:nonzero;stroke:none;font-family:Helvetica;font-variant:normal;font-weight:normal;font-size:10;writing-mode:lr;-inkscape-font-specification:Helvetica"
             x="0 5.56"
             y="0"
             sodipodi:role="line"
             id="tspan3153">15</tspan></text>
</g><path
         d="m 545.832,2400.83 32.5,0"
         style="fill:none;stroke:#000000;stroke-opacity:1;stroke-width:5;stroke-linecap:butt;stroke-linejoin:round;stroke-miterlimit:10;stroke-dasharray:none"
         id="path3155" /><path
         d="m 3800,2400.83 -33.33,0"
         style="fill:none;stroke:#000000;stroke-opacity:1;stroke-width:5;stroke-linecap:butt;stroke-linejoin:round;stroke-miterlimit:10;stroke-dasharray:none"
         id="path3157" /><g
         id="g3159"
         transform="scale(10,10)"><text
           transform="matrix(1,0,0,-1,40.5832,236.417)"
           id="text3161"><tspan
             style="fill:#000000;fill-opacity:1;fill-rule:nonzero;stroke:none;font-family:Helvetica;font-variant:normal;font-weight:normal;font-size:10;writing-mode:lr;-inkscape-font-specification:Helvetica"
             x="0 5.56"
             y="0"
             sodipodi:role="line"
             id="tspan3163">20</tspan></text>
</g><path
         d="m 545.832,2914.17 32.5,0"
         style="fill:none;stroke:#000000;stroke-opacity:1;stroke-width:5;stroke-linecap:butt;stroke-linejoin:round;stroke-miterlimit:10;stroke-dasharray:none"
         id="path3165" /><path
         d="m 3800,2914.17 -33.33,0"
         style="fill:none;stroke:#000000;stroke-opacity:1;stroke-width:5;stroke-linecap:butt;stroke-linejoin:round;stroke-miterlimit:10;stroke-dasharray:none"
         id="path3167" /><g
         id="g3169"
         transform="scale(10,10)"><text
           transform="matrix(1,0,0,-1,40.5832,287.75)"
           id="text3171"><tspan
             style="fill:#000000;fill-opacity:1;fill-rule:nonzero;stroke:none;font-family:Helvetica;font-variant:normal;font-weight:normal;font-size:10;writing-mode:lr;-inkscape-font-specification:Helvetica"
             x="0 5.56"
             y="0"
             sodipodi:role="line"
             id="tspan3173">25</tspan></text>
</g><path
         d="m 545.832,2914.17 3254.168,0"
         style="fill:none;stroke:#000000;stroke-opacity:1;stroke-width:5;stroke-linecap:butt;stroke-linejoin:round;stroke-miterlimit:10;stroke-dasharray:none"
         id="path3175" /><path
         d="m 545.832,346.668 3254.168,0"
         style="fill:none;stroke:#000000;stroke-opacity:1;stroke-width:5;stroke-linecap:butt;stroke-linejoin:round;stroke-miterlimit:10;stroke-dasharray:none"
         id="path3177" /><path
         d="m 3800,346.668 0,2567.502"
         style="fill:none;stroke:#000000;stroke-opacity:1;stroke-width:5;stroke-linecap:butt;stroke-linejoin:round;stroke-miterlimit:10;stroke-dasharray:none"
         id="path3179" /><path
         d="m 545.832,346.668 0,2567.502"
         style="fill:none;stroke:#000000;stroke-opacity:1;stroke-width:5;stroke-linecap:butt;stroke-linejoin:round;stroke-miterlimit:10;stroke-dasharray:none"
         id="path3181" /><g
         id="g3183"><g
           id="g3185"
           clip-path="url(#clipPath3187)"><path
             d="m 878.332,346.668 146.668,0 0,1232.5 -146.668,0 0,-1232.5 z"
             style="fill:#000000;fill-opacity:1;fill-rule:evenodd;stroke:none"
             id="path3191" /><path
             d="m 878.332,346.668 0,1232.502 146.668,0 0,-1232.502 -146.668,0"
             style="fill:none;stroke:#000000;stroke-opacity:1;stroke-width:5;stroke-linecap:butt;stroke-linejoin:round;stroke-miterlimit:10;stroke-dasharray:none"
             id="path3193" /><path
             d="m 1025,346.668 145.832,0 0,1130 -145.832,0 0,-1130 z"
             style="fill:#000000;fill-opacity:1;fill-rule:evenodd;stroke:none"
             id="path3195" /><path
             d="m 1025,346.668 0,1130.002 145.83,0 0,-1130.002 -145.83,0"
             style="fill:none;stroke:#000000;stroke-opacity:1;stroke-width:5;stroke-linecap:butt;stroke-linejoin:round;stroke-miterlimit:10;stroke-dasharray:none"
             id="path3197" /><path
             d="m 1170.83,346.668 145.836,0 0,616.664 -145.836,0 0,-616.664 z"
             style="fill:#000000;fill-opacity:1;fill-rule:evenodd;stroke:none"
             id="path3199" /><path
             d="m 1170.83,346.668 0,616.664 145.84,0 0,-616.664 -145.84,0"
             style="fill:none;stroke:#000000;stroke-opacity:1;stroke-width:5;stroke-linecap:butt;stroke-linejoin:round;stroke-miterlimit:10;stroke-dasharray:none"
             id="path3201" /><path
             d="m 1316.67,346.668 145.832,0 0,719.164 -145.832,0 0,-719.164 z"
             style="fill:#000000;fill-opacity:1;fill-rule:evenodd;stroke:none"
             id="path3203" /><path
             d="m 1316.67,346.668 0,719.162 145.83,0 0,-719.162 -145.83,0"
             style="fill:none;stroke:#000000;stroke-opacity:1;stroke-width:5;stroke-linecap:butt;stroke-linejoin:round;stroke-miterlimit:10;stroke-dasharray:none"
             id="path3205" /><path
             d="m 1462.5,346.668 146.668,0 0,410.832 -146.668,0 0,-410.832 z"
             style="fill:#000000;fill-opacity:1;fill-rule:evenodd;stroke:none"
             id="path3207" /><path
             d="m 1462.5,346.668 0,410.832 146.67,0 0,-410.832 -146.67,0"
             style="fill:none;stroke:#000000;stroke-opacity:1;stroke-width:5;stroke-linecap:butt;stroke-linejoin:round;stroke-miterlimit:10;stroke-dasharray:none"
             id="path3209" /><path
             d="m 1609.17,346.668 145.832,0 0,616.664 -145.832,0 0,-616.664 z"
             style="fill:#000000;fill-opacity:1;fill-rule:evenodd;stroke:none"
             id="path3211" /><path
             d="m 1609.17,346.668 0,616.664 145.83,0 0,-616.664 -145.83,0"
             style="fill:none;stroke:#000000;stroke-opacity:1;stroke-width:5;stroke-linecap:butt;stroke-linejoin:round;stroke-miterlimit:10;stroke-dasharray:none"
             id="path3213" /><path
             d="m 1755,346.668 145.832,0 0,514.164 -145.832,0 0,-514.164 z"
             style="fill:#000000;fill-opacity:1;fill-rule:evenodd;stroke:none"
             id="path3215" /><path
             d="m 1755,346.668 0,514.164 145.83,0 0,-514.164 -145.83,0"
             style="fill:none;stroke:#000000;stroke-opacity:1;stroke-width:5;stroke-linecap:butt;stroke-linejoin:round;stroke-miterlimit:10;stroke-dasharray:none"
             id="path3217" /><path
             d="m 1900.83,346.668 145.836,0 0,514.164 -145.836,0 0,-514.164 z"
             style="fill:#000000;fill-opacity:1;fill-rule:evenodd;stroke:none"
             id="path3219" /><path
             d="m 1900.83,346.668 0,514.164 145.84,0 0,-514.164 -145.84,0"
             style="fill:none;stroke:#000000;stroke-opacity:1;stroke-width:5;stroke-linecap:butt;stroke-linejoin:round;stroke-miterlimit:10;stroke-dasharray:none"
             id="path3221" /><path
             d="m 2046.67,346.668 146.664,0 0,616.664 -146.664,0 0,-616.664 z"
             style="fill:#000000;fill-opacity:1;fill-rule:evenodd;stroke:none"
             id="path3223" /><path
             d="m 2046.67,346.668 0,616.664 146.66,0 0,-616.664 -146.66,0"
             style="fill:none;stroke:#000000;stroke-opacity:1;stroke-width:5;stroke-linecap:butt;stroke-linejoin:round;stroke-miterlimit:10;stroke-dasharray:none"
             id="path3225" /><path
             d="m 2193.33,346.668 145.836,0 0,1130 -145.836,0 0,-1130 z"
             style="fill:#000000;fill-opacity:1;fill-rule:evenodd;stroke:none"
             id="path3227" /><path
             d="m 2193.33,346.668 0,1130.002 145.84,0 0,-1130.002 -145.84,0"
             style="fill:none;stroke:#000000;stroke-opacity:1;stroke-width:5;stroke-linecap:butt;stroke-linejoin:round;stroke-miterlimit:10;stroke-dasharray:none"
             id="path3229" /><path
             d="m 2339.17,346.668 145.832,0 0,2362.5 -145.832,0 0,-2362.5 z"
             style="fill:#000000;fill-opacity:1;fill-rule:evenodd;stroke:none"
             id="path3231" /><path
             d="m 2339.17,346.668 0,2362.502 145.83,0 0,-2362.502 -145.83,0"
             style="fill:none;stroke:#000000;stroke-opacity:1;stroke-width:5;stroke-linecap:butt;stroke-linejoin:round;stroke-miterlimit:10;stroke-dasharray:none"
             id="path3233" /><path
             d="m 2485,346.668 145.832,0 0,2465 -145.832,0 0,-2465 z"
             style="fill:#000000;fill-opacity:1;fill-rule:evenodd;stroke:none"
             id="path3235" /><path
             d="m 2485,346.668 0,2465.002 145.83,0 0,-2465.002 -145.83,0"
             style="fill:none;stroke:#000000;stroke-opacity:1;stroke-width:5;stroke-linecap:butt;stroke-linejoin:round;stroke-miterlimit:10;stroke-dasharray:none"
             id="path3237" /><path
             d="m 2630.83,346.668 146.668,0 0,1232.5 -146.668,0 0,-1232.5 z"
             style="fill:#000000;fill-opacity:1;fill-rule:evenodd;stroke:none"
             id="path3239" /><path
             d="m 2630.83,346.668 0,1232.502 146.67,0 0,-1232.502 -146.67,0"
             style="fill:none;stroke:#000000;stroke-opacity:1;stroke-width:5;stroke-linecap:butt;stroke-linejoin:round;stroke-miterlimit:10;stroke-dasharray:none"
             id="path3241" /><path
             d="m 2777.5,346.668 145.832,0 0,821.664 -145.832,0 0,-821.664 z"
             style="fill:#000000;fill-opacity:1;fill-rule:evenodd;stroke:none"
             id="path3243" /><path
             d="m 2777.5,346.668 0,821.662 145.83,0 0,-821.662 -145.83,0"
             style="fill:none;stroke:#000000;stroke-opacity:1;stroke-width:5;stroke-linecap:butt;stroke-linejoin:round;stroke-miterlimit:10;stroke-dasharray:none"
             id="path3245" /><path
             d="m 2923.33,346.668 145.836,0 0,719.164 -145.836,0 0,-719.164 z"
             style="fill:#000000;fill-opacity:1;fill-rule:evenodd;stroke:none"
             id="path3247" /><path
             d="m 2923.33,346.668 0,719.162 145.84,0 0,-719.162 -145.84,0"
             style="fill:none;stroke:#000000;stroke-opacity:1;stroke-width:5;stroke-linecap:butt;stroke-linejoin:round;stroke-miterlimit:10;stroke-dasharray:none"
             id="path3249" /><path
             d="m 3069.17,346.668 145.832,0 0,514.164 -145.832,0 0,-514.164 z"
             style="fill:#000000;fill-opacity:1;fill-rule:evenodd;stroke:none"
             id="path3251" /><path
             d="m 3069.17,346.668 0,514.164 145.83,0 0,-514.164 -145.83,0"
             style="fill:none;stroke:#000000;stroke-opacity:1;stroke-width:5;stroke-linecap:butt;stroke-linejoin:round;stroke-miterlimit:10;stroke-dasharray:none"
             id="path3253" /><path
             d="m 3215,346.668 146.668,0 0,205.832 -146.668,0 0,-205.832 z"
             style="fill:#000000;fill-opacity:1;fill-rule:evenodd;stroke:none"
             id="path3255" /><path
             d="m 3215,346.668 0,205.832 146.67,0 0,-205.832 -146.67,0"
             style="fill:none;stroke:#000000;stroke-opacity:1;stroke-width:5;stroke-linecap:butt;stroke-linejoin:round;stroke-miterlimit:10;stroke-dasharray:none"
             id="path3257" /><path
             d="m 3361.67,346.668 145.832,0 0,719.164 -145.832,0 0,-719.164 z"
             style="fill:#000000;fill-opacity:1;fill-rule:evenodd;stroke:none"
             id="path3259" /><path
             d="m 3361.67,346.668 0,719.162 145.83,0 0,-719.162 -145.83,0"
             style="fill:none;stroke:#000000;stroke-opacity:1;stroke-width:5;stroke-linecap:butt;stroke-linejoin:round;stroke-miterlimit:10;stroke-dasharray:none"
             id="path3261" /><path
             d="m 3507.5,346.668 145.832,0 0,103.332 -145.832,0 0,-103.332 z"
             style="fill:#000000;fill-opacity:1;fill-rule:evenodd;stroke:none"
             id="path3263" /><path
             d="m 3507.5,346.668 0,103.332 145.83,0 0,-103.332 -145.83,0"
             style="fill:none;stroke:#000000;stroke-opacity:1;stroke-width:5;stroke-linecap:butt;stroke-linejoin:round;stroke-miterlimit:10;stroke-dasharray:none"
             id="path3265" /><path
             d="m 3653.33,346.668 146.668,0 0,616.664 -146.668,0 0,-616.664 z"
             style="fill:#000000;fill-opacity:1;fill-rule:evenodd;stroke:none"
             id="path3267" /><path
             d="m 3653.33,346.668 0,616.664 146.67,0 0,-616.664 -146.67,0"
             style="fill:none;stroke:#000000;stroke-opacity:1;stroke-width:5;stroke-linecap:butt;stroke-linejoin:round;stroke-miterlimit:10;stroke-dasharray:none"
             id="path3269" /></g></g><g
         id="g3271"
         transform="scale(10,10)"><text
           transform="matrix(1,0,0,-1,149.583,10.6668)"
           id="text3273"><tspan
             style="fill:#000000;fill-opacity:1;fill-rule:nonzero;stroke:none;font-family:Helvetica;font-variant:normal;font-weight:normal;font-size:10;writing-mode:lr;-inkscape-font-specification:Helvetica"
             x="0 7.22 12.78 16.11 24.44 30 32.22 34.44 39.44 45 50.56 53.34 62.78 68.34 71.67 76.67 78.89 84.45 90.01 95.57 98.35 101.13 106.69 109.47 115.03 120.59 125.59 127.81 130.59"
             y="0"
             sodipodi:role="line"
             id="tspan3275">Normalized Workload Intensity</tspan></text>
<text
           transform="matrix(0,1,1,0,33.75,128.833)"
           id="text3277"><tspan
             style="fill:#000000;fill-opacity:1;fill-rule:nonzero;stroke:none;font-family:Helvetica;font-variant:normal;font-weight:normal;font-size:10;writing-mode:lr;-inkscape-font-specification:Helvetica"
             x="0 6.11 9.44 15 20 22.78 25 30.56 36.12 38.9 44.46 47.24 50.02 52.8 55.02 63.35"
             y="0"
             sodipodi:role="line"
             id="tspan3279">Fraction of time</tspan></text>
</g></g></g></svg>